<svg xmlns="http://www.w3.org/2000/svg" viewBox="0 0 193 193" width="193" height="193">
	<style>
		tspan { white-space:pre }
		.shp0 { fill: #000000 } 
		.shp1 { fill: #ffffff } 
	</style>
	<g id="Layer">
		<path id="Layer" fill-rule="evenodd" class="shp0" d="M8.5 144L184.25 144L184.25 48.76L8.5 48.76L8.5 144Z" />
		<path id="Layer" fill-rule="evenodd" class="shp1" d="M63.7 68.99L63.7 92.7C63.7 96.93 69.03 98.2 69.03 98.2L69.03 106.07C60.74 106.07 55.06 98.45 55.06 93.71L55.06 68.99L63.7 68.99ZM84.86 68.99L84.86 93.71C84.86 98.45 79.19 106.07 70.9 106.07L70.9 98.2C70.9 98.2 76.23 96.93 76.23 92.7L76.23 68.99L84.86 68.99ZM52.44 76.78L21.96 76.78L21.96 68.99L52.44 68.99L52.44 76.78ZM33.22 106.16L33.22 78.73L41.52 78.73L41.52 106.16L33.22 106.16Z" />
		<path id="Layer" fill-rule="evenodd" class="shp1" d="M94.6 57.05L94.6 136.97L14.6 136.97L14.6 57.05L94.6 57.05ZM92.48 59.17L16.71 59.17L16.71 134.85L92.48 134.85L92.48 59.17Z" />
		<path id="Layer" fill-rule="evenodd" class="shp1" d="M27.72 130.37L24.59 130.37L21.29 119.79L24.17 119.79L26.2 127.66L28.31 119.79L31.19 119.79L27.72 130.37ZM34.33 119.79L37.03 119.79L37.03 130.37L34.33 130.37L34.33 119.79ZM49.22 119.79L49.22 121.99L43.55 121.99L43.55 123.85L48.72 123.85L48.72 125.97L43.55 125.97L43.55 128L49.39 128L49.39 130.37L40.76 130.37L40.76 119.79L49.22 119.79ZM52.78 119.79L55.57 119.79L59.21 126.31L59.3 126.31L59.3 119.79L61.84 119.79L61.84 130.37L59.04 130.37L55.4 123.77L55.32 123.77L55.32 130.37L52.78 130.37L52.78 119.79ZM68.27 119.79L71.91 126.31L72 126.31L72 119.79L74.54 119.79L74.54 130.37L71.74 130.37L68.02 123.77L68.02 130.37L65.39 130.37L65.39 119.79L68.27 119.79ZM81.06 119.79L83.93 119.79L87.83 130.37L84.95 130.37L84.36 128.42L80.63 128.42L79.96 130.37L77.16 130.37L81.06 119.79ZM81.31 126.39L83.68 126.39L82.49 122.66L81.31 126.39ZM20.7 113.35L86.98 113.35L86.98 114.71L20.7 114.71L20.7 113.35ZM106.2 65.1L106.2 58.49L103.83 58.49L103.83 57.22L110.01 57.22L110.01 58.49L107.72 58.49L107.72 65.1L106.2 65.1ZM115.26 61.63L115.26 62.56L112.46 62.56L112.46 64.17L115.43 64.17L115.43 65.1L111.36 65.1L111.36 59.17L115.43 59.17L115.43 60.1L112.46 60.1L112.46 61.63L115.26 61.63ZM120.51 60.87C120.51 60.1 120.25 60.1 119.24 60.1C118.05 60.1 117.88 60.27 117.88 61.46L117.88 62.81C117.88 64 118.05 64.17 119.24 64.17C120.17 64.17 120.59 64.17 120.59 63.32L120.59 62.98L121.69 62.98L121.69 63.4C121.78 65.18 120.67 65.1 119.24 65.18C117.12 65.27 116.78 64.59 116.78 62.81L116.78 61.46C116.78 59.51 117.46 59.09 119.24 59.09C120.76 59.09 121.61 59.09 121.61 60.86L121.61 61.12L120.51 61.12L120.51 60.87ZM128.21 65.1L127.02 65.1L127.02 62.56L124.23 62.56L124.23 65.1L123.13 65.1L123.13 59.17L124.23 59.17L124.23 61.63L127.02 61.63L127.02 59.17L128.21 59.17L128.21 65.1ZM134.22 59.17L135.4 59.17L135.4 65.1L133.46 65.1L130.92 60.1L131 65.1L129.9 65.1L129.9 59.17L131.76 59.17L134.31 64.17L134.22 59.17ZM137.1 59.17L138.2 59.17L138.2 65.1L137.1 65.1L137.1 59.17ZM140.74 63.49C140.74 64.17 141.08 64.25 142.09 64.25C143.19 64.25 143.28 64.08 143.28 63.32C143.28 62.47 142.85 62.64 141.92 62.56C140.65 62.47 139.64 62.56 139.64 60.78C139.64 59.17 140.65 59.09 142.09 59.09C143.36 59.09 144.29 59.17 144.29 60.69L144.29 60.95L143.19 60.95L143.19 60.69C143.19 60.1 142.94 60.02 142.09 60.02C140.99 60.02 140.82 60.19 140.82 60.78C140.82 61.54 140.99 61.54 142.09 61.63C143.95 61.71 144.46 61.79 144.46 63.32C144.46 65.01 143.61 65.18 142.09 65.18C140.82 65.18 139.64 65.18 139.64 63.49L139.64 63.23L140.74 63.23L140.74 63.49ZM149.37 60.87C149.37 60.1 149.12 60.1 148.1 60.1C147 60.1 146.75 60.27 146.75 61.46L146.75 62.81C146.75 64 146.92 64.17 148.1 64.17C149.03 64.17 149.46 64.17 149.46 63.32L149.46 62.98L150.64 62.98L150.64 63.4C150.64 65.18 149.63 65.1 148.1 65.18C146.07 65.27 145.65 64.59 145.65 62.81L145.65 61.46C145.65 59.51 146.41 59.09 148.1 59.09C149.63 59.09 150.48 59.09 150.56 60.86L150.56 61.12L149.37 61.12L149.37 60.87ZM157.08 65.1L155.98 65.1L155.98 62.56L153.18 62.56L153.18 65.1L152 65.1L152 59.17L153.18 59.17L153.18 61.63L155.98 61.63L155.98 59.17L157.08 59.17L157.08 65.1ZM162.58 61.63L162.58 62.56L159.79 62.56L159.79 64.17L162.75 64.17L162.75 65.1L158.69 65.1L158.69 59.17L162.75 59.17L162.75 60.1L159.79 60.1L159.79 61.63L162.58 61.63ZM111.11 69.42L111.11 75.09C111.11 77.29 109.75 77.37 107.81 77.37C105.94 77.37 104.5 77.29 104.5 75.09L104.5 69.42L106.03 69.42L106.03 75.09C106.03 75.85 106.37 76.1 107.8 76.1C109.24 76.1 109.58 75.93 109.58 75.09L109.58 69.42L111.11 69.42ZM117.54 71.36L118.73 71.36L118.73 77.37L116.78 77.37L114.24 72.38L114.33 77.37L113.23 77.37L113.23 71.36L115.09 71.36L117.63 76.36L117.54 71.36ZM120.42 71.36L121.52 71.36L121.52 77.37L120.42 77.37L120.42 71.36ZM126.26 77.37L124.48 77.37L122.62 71.36L123.81 71.36L125.33 76.36L125.42 76.36L126.94 71.36L128.12 71.36L126.26 77.37ZM133.03 73.82L133.03 74.83L130.33 74.83L130.33 76.36L133.2 76.36L133.2 77.37L129.14 77.37L129.14 71.36L133.2 71.36L133.2 72.38L130.33 72.38L130.33 73.82L133.03 73.82ZM137.61 75.34L137.61 75.34L135.91 75.34L135.91 77.37L134.73 77.37L134.73 71.36L137.78 71.36C139.05 71.45 139.55 71.87 139.55 73.23C139.55 74.07 139.55 74.75 138.54 74.83L138.54 74.92C139.3 75 139.55 75.43 139.55 76.27L139.55 77.37L138.37 77.37L138.37 76.27C138.37 75.76 138.2 75.43 137.61 75.34ZM135.91 74.41L137.35 74.41C138.2 74.41 138.45 74.24 138.45 73.39C138.45 72.55 138.28 72.38 137.44 72.38L135.91 72.38L135.91 74.41ZM142.01 75.76C142.01 76.44 142.35 76.44 143.36 76.44C144.38 76.44 144.55 76.27 144.55 75.59C144.55 74.75 144.13 74.83 143.19 74.83C141.92 74.75 140.91 74.75 140.91 73.05C140.91 71.36 141.93 71.36 143.36 71.36C144.55 71.36 145.57 71.36 145.57 72.97L145.57 73.14L144.46 73.14L144.46 72.97C144.46 72.29 144.13 72.29 143.36 72.29C142.26 72.29 142.01 72.38 142.01 73.05C142.01 73.73 142.18 73.82 143.36 73.82C145.22 73.98 145.65 74.07 145.65 75.59C145.65 77.29 144.89 77.37 143.36 77.37C142.01 77.37 140.91 77.46 140.91 75.76L140.91 75.43L142.01 75.43L142.01 75.76ZM147.09 71.36L148.27 71.36L148.27 77.37L147.09 77.37L147.09 71.36ZM151.15 77.37L151.15 72.38L149.46 72.38L149.46 71.36L154.03 71.36L154.03 72.38L152.34 72.38L152.34 77.37L151.15 77.37ZM156.23 76.19L155.9 77.37L154.71 77.37L156.66 71.36L158.35 71.36L160.38 77.37L159.19 77.37L158.77 76.19L156.23 76.19ZM157.08 70.01L157.08 70.77L156.31 70.77L156.31 70.01L157.08 70.01ZM158.69 70.01L158.69 70.77L157.92 70.77L157.92 70.01L158.69 70.01ZM158.52 75.34L157.5 72.29L156.48 75.34L158.52 75.34ZM162.75 77.37L162.75 72.38L160.97 72.38L160.97 71.36L165.63 71.36L165.63 72.38L163.85 72.38L163.85 77.37L162.75 77.37ZM115.68 81.61L113.56 89.56L111.36 89.56L109.75 83.55L109.67 83.55L108.06 89.56L105.86 89.56L103.83 81.61L105.35 81.61L106.96 88.29L107.05 88.29L108.82 81.61L110.6 81.61L112.38 88.29L114.16 81.61L115.68 81.61ZM116.95 89.56L116.95 83.64L118.13 83.64L118.13 89.56L116.95 89.56ZM120.84 86.09L123.64 86.09L123.64 87.02L120.84 87.02L120.84 88.63L123.81 88.63L123.81 89.56L119.74 89.56L119.74 83.64L123.81 83.64L123.81 84.57L120.84 84.57L120.84 86.09ZM129.73 83.64L130.92 83.64L130.92 89.56L128.97 89.56L126.43 84.57L126.52 89.56L125.33 89.56L125.33 83.64L127.28 83.64L129.82 88.63L129.73 83.64ZM111.11 104.55L108.57 112.51L106.28 112.51L103.74 104.55L105.27 104.55L107.38 111.23L109.5 104.55L111.11 104.55ZM112.38 106.58L113.48 106.58L113.48 112.51L112.38 112.51L112.38 106.58ZM116.27 109.03L119.07 109.03L119.07 109.97L116.27 109.97L116.27 111.57L119.24 111.57L119.24 112.51L115.09 112.51L115.09 106.58L119.15 106.58L119.15 107.51L116.27 107.51L116.27 109.03ZM126.26 106.58L126.26 112.51L124.31 112.51L121.86 107.51L121.78 107.51L121.86 112.51L120.76 112.51L120.76 106.58L122.62 106.58L125.16 111.57L125.08 106.58L126.26 106.58ZM133.46 106.58L133.46 112.51L131.51 112.51L129.05 107.51L128.97 107.51L129.05 112.51L127.95 112.51L127.95 106.58L129.82 106.58L132.36 111.57L132.27 106.58L133.46 106.58ZM138.71 111.41L136.17 111.41L135.75 112.51L134.56 112.51L136.59 106.58L138.2 106.58L140.23 112.51L139.13 112.51L138.71 111.41ZM137.44 107.43L136.42 110.56L138.45 110.56L137.44 107.43ZM111.11 116.82L111.11 122.49C111.11 124.7 109.75 124.78 107.81 124.78C105.94 124.78 104.5 124.7 104.5 122.49L104.5 116.82L106.03 116.82L106.03 122.49C106.03 123.26 106.37 123.51 107.8 123.51C109.24 123.51 109.58 123.34 109.58 122.49L109.58 116.82L111.11 116.82ZM117.54 118.77L118.73 118.77L118.73 124.78L116.78 124.78L114.24 119.79L114.33 124.78L113.14 124.78L113.14 118.77L115.09 118.77L117.63 123.77L117.54 118.77ZM120.34 118.77L121.52 118.77L121.52 124.78L120.34 124.78L120.34 118.77ZM128.13 118.77L126.18 124.78L124.48 124.78L122.62 118.77L123.72 118.77L125.33 123.77L126.94 118.77L128.13 118.77ZM130.24 121.23L133.03 121.23L133.03 122.16L130.24 122.16L130.24 123.77L133.2 123.77L133.2 124.78L129.14 124.78L129.14 118.77L133.2 118.77L133.2 119.79L130.24 119.79L130.24 121.23ZM137.61 122.75L137.61 122.75L135.83 122.75L135.83 124.78L134.73 124.78L134.73 118.77L137.78 118.77C139.04 118.86 139.55 119.28 139.55 120.55C139.55 121.48 139.47 122.07 138.54 122.24L138.54 122.33C139.3 122.33 139.47 122.83 139.47 123.68L139.47 124.78L138.37 124.78L138.37 123.68C138.37 123.17 138.11 122.83 137.61 122.75ZM135.83 121.82L137.35 121.82C138.2 121.82 138.37 121.65 138.37 120.8C138.37 119.95 138.28 119.79 137.44 119.79L135.83 119.79L135.83 121.82ZM142.01 123.17C142.01 123.85 142.26 123.85 143.36 123.85C144.38 123.85 144.55 123.68 144.55 123C144.55 122.16 144.04 122.24 143.19 122.16C141.92 122.16 140.91 122.16 140.91 120.46C140.91 118.77 141.93 118.77 143.36 118.77C144.55 118.77 145.57 118.77 145.57 120.38L145.57 120.55L144.38 120.55L144.38 120.38C144.38 119.7 144.13 119.7 143.36 119.7C142.18 119.7 142.01 119.79 142.01 120.46C142.01 121.14 142.18 121.23 143.36 121.23C145.14 121.4 145.65 121.48 145.65 123C145.65 124.7 144.89 124.78 143.36 124.78C142.01 124.78 140.82 124.87 140.82 123.17L140.82 122.83L142.01 122.83L142.01 123.17ZM147.09 118.77L148.27 118.77L148.27 124.78L147.09 124.78L147.09 118.77ZM152.34 124.78L151.15 124.78L151.15 119.79L149.37 119.79L149.37 118.77L154.03 118.77L154.03 119.79L152.34 119.79L152.34 124.78ZM157.92 124.78L156.74 124.78L156.74 122.5L154.62 118.77L155.89 118.77L157.33 121.31L158.77 118.77L160.12 118.77L157.92 122.5L157.92 124.78ZM169.44 120.89L169.44 122.49C169.44 124.44 168.67 124.78 166.9 124.78C165.03 124.78 164.36 124.44 164.36 122.49L164.36 120.89C164.36 119.11 165.03 118.77 166.9 118.77C168.59 118.77 169.44 119.02 169.44 120.89ZM165.54 120.89L165.54 122.5C165.54 123.68 165.71 123.85 166.9 123.85C167.91 123.85 168.25 123.68 168.25 122.5L168.25 120.89C168.33 119.79 167.91 119.7 166.9 119.7C165.63 119.7 165.54 119.95 165.54 120.89ZM171.98 121.39L174.6 121.39L174.6 122.33L171.98 122.33L171.98 124.78L170.88 124.78L170.88 118.77L174.77 118.77L174.77 119.79L171.98 119.79L171.98 121.39ZM106.2 136.97L106.2 130.37L103.83 130.37L103.83 129.01L110.01 129.01L110.01 130.37L107.72 130.37L107.72 136.97L106.2 136.97ZM115.26 133.5L115.26 134.43L112.46 134.43L112.46 136.04L115.43 136.04L115.43 136.97L111.36 136.97L111.36 131.04L115.43 131.04L115.43 131.98L112.46 131.98L112.46 133.5L115.26 133.5ZM120.51 132.65C120.51 131.98 120.25 131.98 119.24 131.98C118.05 131.98 117.88 132.15 117.88 133.33L117.88 134.6C117.88 135.79 118.05 136.04 119.24 136.04C120.17 136.04 120.51 136.04 120.51 135.19L120.51 134.85L121.69 134.85L121.69 135.19C121.69 137.05 120.67 136.97 119.24 137.05C117.12 137.14 116.78 136.38 116.7 134.68L116.7 133.33C116.7 131.38 117.46 130.96 119.24 130.96C120.68 130.96 121.52 130.96 121.61 132.65L121.61 132.99L120.51 132.99L120.51 132.65ZM128.13 136.97L127.02 136.97L127.02 134.43L124.23 134.43L124.23 136.97L123.13 136.97L123.13 131.05L124.23 131.05L124.23 133.5L127.02 133.5L127.02 131.05L128.13 131.05L128.13 136.97ZM134.22 131.04L135.4 131.04L135.4 136.97L133.46 136.97L130.92 131.98L131 136.97L129.82 136.97L129.82 131.04L131.76 131.04L134.31 136.04L134.22 131.04ZM141.92 133.16L141.92 134.77C141.92 136.63 141.16 137.06 139.38 137.06C137.52 137.06 136.84 136.72 136.84 134.77L136.84 133.16C136.84 131.3 137.44 130.96 139.38 130.96C141.08 130.96 141.92 131.22 141.92 133.16ZM137.95 133.16L137.95 134.77C137.95 135.96 138.2 136.04 139.38 136.04C140.4 136.04 140.74 135.87 140.74 134.77L140.74 133.16C140.74 132.06 140.4 131.98 139.38 131.98C138.11 131.98 138.03 132.23 137.95 133.16ZM144.46 136.04L147.26 136.04L147.26 136.97L143.36 136.97L143.36 131.04L144.46 131.04L144.46 136.04ZM153.35 133.16L153.35 134.77C153.35 136.63 152.59 137.06 150.81 137.06C148.95 137.06 148.27 136.72 148.27 134.77L148.27 133.16C148.27 131.3 148.87 130.96 150.81 130.96C152.51 130.96 153.35 131.22 153.35 133.16ZM149.37 133.16L149.37 134.77C149.37 135.96 149.63 136.04 150.81 136.04C151.83 136.04 152.17 135.87 152.17 134.77L152.17 133.16C152.17 132.06 151.83 131.98 150.81 131.98C149.54 131.98 149.46 132.23 149.37 133.16ZM159.7 134.94C159.7 136.63 159.28 137.06 157.16 137.06C155.22 137.06 154.54 136.72 154.54 134.69L154.54 133.33C154.54 131.3 155.3 130.96 157.16 130.96C158.6 130.96 159.79 130.88 159.7 132.82L158.6 132.82C158.6 131.98 158.18 131.98 157.16 131.98C155.81 131.98 155.72 132.15 155.64 133.33L155.64 134.69C155.72 135.96 155.89 136.04 157.16 136.04C158.26 136.04 158.6 136.04 158.6 134.94L158.6 134.68L157.08 134.68L157.08 133.84L159.7 133.84L159.7 134.94ZM163.85 136.97L162.75 136.97L162.75 134.69L160.55 131.05L161.9 131.05L163.26 133.59L163.34 133.59L164.78 131.05L166.05 131.05L163.85 134.69L163.85 136.97ZM20.7 114.03L86.98 114.03C86.98 114.03 20.69 114.03 20.7 114.03Z" />
	</g>
</svg>